<?xml version="1.0" encoding="iso-8859-1"?>
<!-- Generator: Adobe Illustrator 18.0.0, SVG Export Plug-In . SVG Version: 6.00 Build 0)  -->
<!DOCTYPE svg PUBLIC "-//W3C//DTD SVG 1.1//EN" "http://www.w3.org/Graphics/SVG/1.1/DTD/svg11.dtd">
<svg version="1.1" id="Capa_1" xmlns="http://www.w3.org/2000/svg" xmlns:xlink="http://www.w3.org/1999/xlink" x="0px" y="0px"
	 viewBox="0 0 294.039 294.039" style="enable-background:new 0 0 294.039 294.039;" xml:space="preserve">
<path d="M284.039,128.456H37.128V91.735c0-6.508,5.293-11.802,11.799-11.802h42.04c6.505,0,11.798,5.294,11.798,11.802
	c0,5.522,4.478,10,10,10c5.522,0,10-4.478,10-10c0-17.535-14.265-31.802-31.798-31.802l-43.546,0.019
	c8.135-9.957,18.172-15.199,18.463-15.349c4.92-2.479,6.909-8.473,4.444-13.402c-2.47-4.941-8.481-6.943-13.416-4.473
	c-1.625,0.813-39.784,20.352-39.784,60.335v41.393H10c-5.523,0-10,4.396-10,9.919v34.342c0,36.005,27.898,66.425,65.81,75.651H10
	c-5.523,0-10,4.477-10,10c0,5.522,4.477,10,10,10h274.039c5.522,0,10-4.478,10-10c0-5.522-4.478-10-10-10H228.23
	c37.911-9.227,65.809-39.646,65.809-75.651v-34.342c0-0.006,0-0.011,0-0.017C294.03,132.844,289.557,128.456,284.039,128.456z
	 M274.039,172.717c0,32.27-31.37,58.523-69.929,58.523H89.929C51.37,231.241,20,204.987,20,172.717v-24.261h254.039V172.717z"/>
<g>
</g>
<g>
</g>
<g>
</g>
<g>
</g>
<g>
</g>
<g>
</g>
<g>
</g>
<g>
</g>
<g>
</g>
<g>
</g>
<g>
</g>
<g>
</g>
<g>
</g>
<g>
</g>
<g>
</g>
</svg>
